<svg id="SvgjsSvg1169" width="682.6666666666666" height="574.3333536783854" xmlns="http://www.w3.org/2000/svg" version="1.1" xmlns:xlink="http://www.w3.org/1999/xlink" xmlns:svgjs="http://svgjs.com/svgjs"><defs id="SvgjsDefs1170"><marker id="SvgjsMarker1179" markerWidth="14" markerHeight="10" refX="10" refY="5" viewBox="0 0 14 10" orient="auto" markerUnits="userSpaceOnUse" stroke-dasharray="0,0"><path id="SvgjsPath1180" d="M0,0 L14,5 L0,10 L0,0" fill="#323232" stroke="#323232" stroke-width="1"></path></marker><marker id="SvgjsMarker1189" markerWidth="14" markerHeight="10" refX="10" refY="5" viewBox="0 0 14 10" orient="auto" markerUnits="userSpaceOnUse" stroke-dasharray="0,0"><path id="SvgjsPath1190" d="M0,0 L14,5 L0,10 L0,0" fill="#323232" stroke="#323232" stroke-width="1"></path></marker><marker id="SvgjsMarker1199" markerWidth="14" markerHeight="10" refX="10" refY="5" viewBox="0 0 14 10" orient="auto" markerUnits="userSpaceOnUse" stroke-dasharray="0,0"><path id="SvgjsPath1200" d="M0,0 L14,5 L0,10 L0,0" fill="#4ccbcd" stroke="#4ccbcd" stroke-width="1"></path></marker><marker id="SvgjsMarker1213" markerWidth="14" markerHeight="10" refX="10" refY="5" viewBox="0 0 14 10" orient="auto" markerUnits="userSpaceOnUse" stroke-dasharray="0,0"><path id="SvgjsPath1214" d="M0,0 L14,5 L0,10 L0,0" fill="#4669ea" stroke="#4669ea" stroke-width="1"></path></marker><marker id="SvgjsMarker1227" markerWidth="14" markerHeight="10" refX="10" refY="5" viewBox="0 0 14 10" orient="auto" markerUnits="userSpaceOnUse" stroke-dasharray="0,0"><path id="SvgjsPath1228" d="M0,0 L14,5 L0,10 L0,0" fill="#7bd144" stroke="#7bd144" stroke-width="1"></path></marker><marker id="SvgjsMarker1241" markerWidth="14" markerHeight="10" refX="10" refY="5" viewBox="0 0 14 10" orient="auto" markerUnits="userSpaceOnUse" stroke-dasharray="0,0"><path id="SvgjsPath1242" d="M0,0 L14,5 L0,10 L0,0" fill="#e0c431" stroke="#e0c431" stroke-width="1"></path></marker><marker id="SvgjsMarker1255" markerWidth="14" markerHeight="10" refX="10" refY="5" viewBox="0 0 14 10" orient="auto" markerUnits="userSpaceOnUse" stroke-dasharray="0,0"><path id="SvgjsPath1256" d="M0,0 L14,5 L0,10 L0,0" fill="#323232" stroke="#323232" stroke-width="1"></path></marker><marker id="SvgjsMarker1269" markerWidth="14" markerHeight="10" refX="10" refY="5" viewBox="0 0 14 10" orient="auto" markerUnits="userSpaceOnUse" stroke-dasharray="0,0"><path id="SvgjsPath1270" d="M0,0 L14,5 L0,10 L0,0" fill="#323232" stroke="#323232" stroke-width="1"></path></marker><marker id="SvgjsMarker1283" markerWidth="14" markerHeight="10" refX="10" refY="5" viewBox="0 0 14 10" orient="auto" markerUnits="userSpaceOnUse" stroke-dasharray="0,0"><path id="SvgjsPath1284" d="M0,0 L14,5 L0,10 L0,0" fill="#323232" stroke="#323232" stroke-width="1"></path></marker><marker id="SvgjsMarker1299" markerWidth="14" markerHeight="10" refX="10" refY="5" viewBox="0 0 14 10" orient="auto" markerUnits="userSpaceOnUse" stroke-dasharray="0,0"><path id="SvgjsPath1300" d="M0,0 L14,5 L0,10 L0,0" fill="#323232" stroke="#323232" stroke-width="1"></path></marker><marker id="SvgjsMarker1303" markerWidth="14" markerHeight="10" refX="10" refY="5" viewBox="0 0 14 10" orient="auto" markerUnits="userSpaceOnUse" stroke-dasharray="0,0"><path id="SvgjsPath1304" d="M0,0 L14,5 L0,10 L0,0" fill="#323232" stroke="#323232" stroke-width="1"></path></marker><marker id="SvgjsMarker1307" markerWidth="14" markerHeight="10" refX="10" refY="5" viewBox="0 0 14 10" orient="auto" markerUnits="userSpaceOnUse" stroke-dasharray="0,0"><path id="SvgjsPath1308" d="M0,0 L14,5 L0,10 L0,0" fill="#323232" stroke="#323232" stroke-width="1"></path></marker><marker id="SvgjsMarker1311" markerWidth="14" markerHeight="10" refX="10" refY="5" viewBox="0 0 14 10" orient="auto" markerUnits="userSpaceOnUse" stroke-dasharray="0,0"><path id="SvgjsPath1312" d="M0,0 L14,5 L0,10 L0,0" fill="#323232" stroke="#323232" stroke-width="1"></path></marker></defs><g id="SvgjsG1171" transform="translate(101.16666666666663,24.999989827474224)"><path id="SvgjsPath1172" d="M 16.333333333333332 0L 134.66666666666666 0C 156.44444444444446 0 156.44444444444446 49 134.66666666666666 49L 16.333333333333332 49C -5.444444444444444 49 -5.444444444444444 0 16.333333333333332 0Z" stroke="rgba(33,41,48,1)" stroke-width="2" fill-opacity="1" fill="#ffffff"></path><g id="SvgjsG1173"><text id="SvgjsText1174" font-family="微软雅黑" text-anchor="middle" font-size="16px" width="131px" fill="#323232" font-weight="700" align="middle" lineHeight="125%" anchor="middle" family="微软雅黑" size="16px" weight="700" font-style="" opacity="1" y="10.5" transform="rotate(0)"><tspan id="SvgjsTspan1175" dy="20" x="75.5"><tspan id="SvgjsTspan1176" style="text-decoration:;">JS 的执行机制</tspan></tspan></text></g></g><g id="SvgjsG1177"><path id="SvgjsPath1178" d="M176.66666666666663 74.99998982747422L176.66666666666663 88.16665649414085L176.66666666666663 88.16665649414085L176.66666666666663 98.7333231608074" stroke="#323232" stroke-width="2" fill="none" marker-end="url(#SvgjsMarker1179)"></path></g><g id="SvgjsG1181" transform="translate(111.66666666666663,102.33332316080742)"><path id="SvgjsPath1182" d="M 0 4Q 0 0 4 0L 126 0Q 130 0 130 4L 130 49Q 130 53 126 53L 4 53Q 0 53 0 49Z" stroke="rgba(33,41,48,1)" stroke-width="2" fill-opacity="1" fill="#ffffff"></path><g id="SvgjsG1183"><text id="SvgjsText1184" font-family="微软雅黑" text-anchor="middle" font-size="14px" width="110px" fill="#323232" font-weight="700" align="middle" lineHeight="125%" anchor="middle" family="微软雅黑" size="14px" weight="700" font-style="" opacity="1" y="14.75" transform="rotate(0)"><tspan id="SvgjsTspan1185" dy="17" x="65"><tspan id="SvgjsTspan1186" style="text-decoration:;">进入任务执行栈</tspan></tspan></text></g></g><g id="SvgjsG1187"><path id="SvgjsPath1188" d="M176.66666666666663 156.33332316080742L176.66666666666663 169.499989827474L176.66666666666663 169.499989827474L176.66666666666663 180.0666564941406" stroke="#323232" stroke-width="2" fill="none" marker-end="url(#SvgjsMarker1189)"></path></g><g id="SvgjsG1191" transform="translate(100.16666666666663,183.66665649414062)"><path id="SvgjsPath1192" d="M 0 27.5L 76.5 0L 153 27.5L 76.5 55Z" stroke="rgba(33,41,48,1)" stroke-width="2" fill-opacity="1" fill="#ffffff"></path><g id="SvgjsG1193"><text id="SvgjsText1194" font-family="微软雅黑" text-anchor="middle" font-size="14px" width="133px" fill="#323232" font-weight="700" align="middle" lineHeight="125%" anchor="middle" family="微软雅黑" size="14px" weight="700" font-style="" opacity="1" y="16.025" transform="rotate(0)"><tspan id="SvgjsTspan1195" dy="17" x="76.5"><tspan id="SvgjsTspan1196" style="text-decoration:;">同步还是异步？</tspan></tspan></text></g></g><g id="SvgjsG1197"><path id="SvgjsPath1198" d="M254.16666666666663 211.16665649414062L338.83333333333314 211.16665649414062L338.83333333333314 211.16665649414062L420.8999999999995 211.16665649414062" stroke="#4ccbcd" stroke-width="2" fill="none" marker-end="url(#SvgjsMarker1199)"></path><rect id="SvgjsRect1201" width="56" height="18" x="309.5333333333331" y="202.16665649414062" fill="#ffffff"></rect><text id="SvgjsText1202" font-family="微软雅黑" text-anchor="middle" font-size="14px" width="56px" fill="#323232" font-weight="700" align="top" lineHeight="18px" anchor="middle" family="微软雅黑" size="14px" weight="700" font-style="" opacity="1" y="199.41665649414062" transform="rotate(0)"><tspan id="SvgjsTspan1203" dy="17" x="337.5333333333331"><tspan id="SvgjsTspan1204" style="text-decoration:;">异步任务</tspan></tspan></text></g><g id="SvgjsG1205" transform="translate(424.49999999999943,184.16665649414062)"><path id="SvgjsPath1206" d="M 0 27L 89.91666666666663 0L 179.83333333333326 27L 89.91666666666663 54Z" stroke="rgba(33,41,48,1)" stroke-width="2" fill-opacity="1" fill="#ffffff"></path><g id="SvgjsG1207"><text id="SvgjsText1208" font-family="微软雅黑" text-anchor="middle" font-size="14px" width="160px" fill="#323232" font-weight="700" align="middle" lineHeight="125%" anchor="middle" family="微软雅黑" size="14px" weight="700" font-style="" opacity="1" y="15.52" transform="rotate(0)"><tspan id="SvgjsTspan1209" dy="17" x="90"><tspan id="SvgjsTspan1210" style="text-decoration:;">宏任务还是微任务？</tspan></tspan></text></g></g><g id="SvgjsG1211"><path id="SvgjsPath1212" d="M176.66666666666663 239.66665649414062L176.66666666666663 263.6666564941406L176.6666666666664 263.6666564941406L176.6666666666664 285.0666564941406" stroke="#4669ea" stroke-width="2" fill="none" marker-end="url(#SvgjsMarker1213)"></path><rect id="SvgjsRect1215" width="56" height="18" x="148.66666666666663" y="253.36665649414073" fill="#ffffff"></rect><text id="SvgjsText1216" font-family="微软雅黑" text-anchor="middle" font-size="14px" width="56px" fill="#323232" font-weight="700" align="top" lineHeight="18px" anchor="middle" family="微软雅黑" size="14px" weight="700" font-style="" opacity="1" y="250.61665649414073" transform="rotate(0)"><tspan id="SvgjsTspan1217" dy="17" x="176.66666666666663"><tspan id="SvgjsTspan1218" style="text-decoration:;">同步任务</tspan></tspan></text></g><g id="SvgjsG1219" transform="translate(116.83333333333337,288.6666564941406)"><path id="SvgjsPath1220" d="M 0 4Q 0 0 4 0L 115.66666666666674 0Q 119.66666666666674 0 119.66666666666674 4L 119.66666666666674 50Q 119.66666666666674 54 115.66666666666674 54L 4 54Q 0 54 0 50Z" stroke="rgba(33,41,48,1)" stroke-width="2" fill-opacity="1" fill="#ffffff"></path><g id="SvgjsG1221"><text id="SvgjsText1222" font-family="微软雅黑" text-anchor="middle" font-size="14px" width="100px" fill="#323232" font-weight="700" align="middle" lineHeight="125%" anchor="middle" family="微软雅黑" size="14px" weight="700" font-style="" opacity="1" y="15.25" transform="rotate(0)"><tspan id="SvgjsTspan1223" dy="17" x="60"><tspan id="SvgjsTspan1224" style="text-decoration:;">主线程</tspan></tspan></text></g></g><g id="SvgjsG1225"><path id="SvgjsPath1226" d="M514.2047298915617 239.14393987339065C 517.8186445847747 277.05144203096324 430.9166666666664 249.63333739365942 431.9844820776651 285.228667220156" stroke="#7bd144" stroke-width="2" fill="none" marker-end="url(#SvgjsMarker1227)"></path><rect id="SvgjsRect1229" width="42" height="18" x="453.0493932154438" y="254.05336817092677" fill="#ffffff"></rect><text id="SvgjsText1230" font-family="微软雅黑" text-anchor="middle" font-size="14px" width="42px" fill="#323232" font-weight="700" align="top" lineHeight="18px" anchor="middle" family="微软雅黑" size="14px" weight="700" font-style="" opacity="1" y="251.30336817092677" transform="rotate(0)"><tspan id="SvgjsTspan1231" dy="17" x="474.0493932154438"><tspan id="SvgjsTspan1232" style="text-decoration:;">微任务</tspan></tspan></text></g><g id="SvgjsG1233" transform="translate(373.6874999999999,288.6666564941406)"><path id="SvgjsPath1234" d="M 0 4Q 0 0 4 0L 110.45833333333326 0Q 114.45833333333326 0 114.45833333333326 4L 114.45833333333326 50Q 114.45833333333326 54 110.45833333333326 54L 4 54Q 0 54 0 50Z" stroke="rgba(33,41,48,1)" stroke-width="2" fill-opacity="1" fill="#ffffff"></path><g id="SvgjsG1235"><text id="SvgjsText1236" font-family="微软雅黑" text-anchor="middle" font-size="14px" width="95px" fill="#323232" font-weight="700" align="middle" lineHeight="125%" anchor="middle" family="微软雅黑" size="14px" weight="700" font-style="" opacity="1" y="15.25" transform="rotate(0)"><tspan id="SvgjsTspan1237" dy="17" x="57.5"><tspan id="SvgjsTspan1238" style="text-decoration:;">Event Table</tspan></tspan></text></g></g><g id="SvgjsG1239"><path id="SvgjsPath1240" d="M514.7721053475121 239.1013560951667C 517.8897574016852 277.86426524764533 600.2916666666664 248.8174093243381 599.3085582650775 285.2034935076895" stroke="#e0c431" stroke-width="2" fill="none" marker-end="url(#SvgjsMarker1241)"></path><rect id="SvgjsRect1243" width="42" height="18" x="537.5781169772056" y="254.04373416485078" fill="#ffffff"></rect><text id="SvgjsText1244" font-family="微软雅黑" text-anchor="middle" font-size="14px" width="42px" fill="#323232" font-weight="700" align="top" lineHeight="18px" anchor="middle" family="微软雅黑" size="14px" weight="700" font-style="" opacity="1" y="251.29373416485078" transform="rotate(0)"><tspan id="SvgjsTspan1245" dy="17" x="558.5781169772056"><tspan id="SvgjsTspan1246" style="text-decoration:;">宏任务</tspan></tspan></text></g><g id="SvgjsG1247" transform="translate(543.4166666666664,288.6666564941406)"><path id="SvgjsPath1248" d="M 0 4Q 0 0 4 0L 109.75 0Q 113.75 0 113.75 4L 113.75 50Q 113.75 54 109.75 54L 4 54Q 0 54 0 50Z" stroke="rgba(33,41,48,1)" stroke-width="2" fill-opacity="1" fill="#ffffff"></path><g id="SvgjsG1249"><text id="SvgjsText1250" font-family="微软雅黑" text-anchor="middle" font-size="14px" width="94px" fill="#323232" font-weight="700" align="middle" lineHeight="125%" anchor="middle" family="微软雅黑" size="14px" weight="700" font-style="" opacity="1" y="15.25" transform="rotate(0)"><tspan id="SvgjsTspan1251" dy="17" x="57"><tspan id="SvgjsTspan1252" style="text-decoration:;fill: rgb(50, 50, 50);">Event Table</tspan></tspan></text></g></g><g id="SvgjsG1253"><path id="SvgjsPath1254" d="M430.9166666666664 343.6666564941406L430.9166666666664 367.9166564941406L430.91666666666686 367.9166564941406L430.91666666666686 389.5666564941406" stroke="#323232" stroke-width="2" fill="none" marker-end="url(#SvgjsMarker1255)"></path><rect id="SvgjsRect1257" width="56" height="18" x="402.9166666666664" y="357.61665649414084" fill="#ffffff"></rect><text id="SvgjsText1258" font-family="微软雅黑" text-anchor="middle" font-size="14px" width="56px" fill="#323232" font-weight="700" align="top" lineHeight="18px" anchor="middle" family="微软雅黑" size="14px" weight="700" font-style="" opacity="1" y="354.86665649414084" transform="rotate(0)"><tspan id="SvgjsTspan1259" dy="17" x="430.9166666666664"><tspan id="SvgjsTspan1260" style="text-decoration:;">注册回调</tspan></tspan></text></g><g id="SvgjsG1261" transform="translate(373.9687500000001,393.1666564941406)"><path id="SvgjsPath1262" d="M 0 4Q 0 0 4 0L 109.89583333333326 0Q 113.89583333333326 0 113.89583333333326 4L 113.89583333333326 47Q 113.89583333333326 51 109.89583333333326 51L 4 51Q 0 51 0 47Z" stroke="rgba(33,41,48,1)" stroke-width="2" fill-opacity="1" fill="#ffffff"></path><g id="SvgjsG1263"><text id="SvgjsText1264" font-family="微软雅黑" text-anchor="middle" font-size="14px" width="94px" fill="#323232" font-weight="700" align="middle" lineHeight="125%" anchor="middle" family="微软雅黑" size="14px" weight="700" font-style="" opacity="1" y="13.75" transform="rotate(0)"><tspan id="SvgjsTspan1265" dy="17" x="57"><tspan id="SvgjsTspan1266" style="text-decoration:;">Event Queue</tspan></tspan></text></g></g><g id="SvgjsG1267"><path id="SvgjsPath1268" d="M600.2916666666664 343.6666564941406L600.2916666666664 368.4166564941406L600.2916666666666 368.4166564941406L600.2916666666666 390.5666564941406" stroke="#323232" stroke-width="2" fill="none" marker-end="url(#SvgjsMarker1269)"></path><rect id="SvgjsRect1271" width="56" height="18" x="572.2916666666664" y="358.11665649414067" fill="#ffffff"></rect><text id="SvgjsText1272" font-family="微软雅黑" text-anchor="middle" font-size="14px" width="56px" fill="#323232" font-weight="700" align="top" lineHeight="18px" anchor="middle" family="微软雅黑" size="14px" weight="700" font-style="" opacity="1" y="355.36665649414067" transform="rotate(0)"><tspan id="SvgjsTspan1273" dy="17" x="600.2916666666664"><tspan id="SvgjsTspan1274" style="text-decoration:;">注册回调</tspan></tspan></text></g><g id="SvgjsG1275" transform="translate(543.2135416666666,394.1666564941406)"><path id="SvgjsPath1276" d="M 0 4Q 0 0 4 0L 110.15625 0Q 114.15625 0 114.15625 4L 114.15625 45Q 114.15625 49 110.15625 49L 4 49Q 0 49 0 45Z" stroke="rgba(33,41,48,1)" stroke-width="2" fill-opacity="1" fill="#ffffff"></path><g id="SvgjsG1277"><text id="SvgjsText1278" font-family="微软雅黑" text-anchor="middle" font-size="14px" width="95px" fill="#323232" font-weight="700" align="middle" lineHeight="125%" anchor="middle" family="微软雅黑" size="14px" weight="700" font-style="" opacity="1" y="12.75" transform="rotate(0)"><tspan id="SvgjsTspan1279" dy="17" x="57.5"><tspan id="SvgjsTspan1280" style="text-decoration:;fill: rgb(50, 50, 50);">Event Queue</tspan></tspan></text></g></g><g id="SvgjsG1281"><path id="SvgjsPath1282" d="M176.6666666666664 343.6666564941406L176.6666666666664 367.6666564941406L176.66666666666663 367.6666564941406L176.66666666666663 389.0666564941406" stroke="#323232" stroke-width="2" fill="none" marker-end="url(#SvgjsMarker1283)"></path></g><g id="SvgjsG1285" transform="translate(116.16666666666663,392.6666564941406)"><path id="SvgjsPath1286" d="M 0 4Q 0 0 4 0L 117 0Q 121 0 121 4L 121 48Q 121 52 117 52L 4 52Q 0 52 0 48Z" stroke="rgba(33,41,48,1)" stroke-width="2" fill-opacity="1" fill="#ffffff"></path><g id="SvgjsG1287"><text id="SvgjsText1288" font-family="微软雅黑" text-anchor="middle" font-size="14px" width="101px" fill="#323232" font-weight="700" align="middle" lineHeight="125%" anchor="middle" family="微软雅黑" size="14px" weight="700" font-style="" opacity="1" y="14.25" transform="rotate(0)"><tspan id="SvgjsTspan1289" dy="17" x="60.5"><tspan id="SvgjsTspan1290" style="text-decoration:;">任务执行完毕</tspan></tspan></text></g></g><g id="SvgjsG1291" transform="translate(116.16666666666663,499.99998982747456)"><path id="SvgjsPath1292" d="M 0 4Q 0 0 4 0L 537.203125 0Q 541.203125 0 541.203125 4L 541.203125 45.11111450195256Q 541.203125 49.11111450195256 537.203125 49.11111450195256L 4 49.11111450195256Q 0 49.11111450195256 0 45.11111450195256Z" stroke="rgba(33,41,48,1)" stroke-width="2" fill-opacity="1" fill="#ffffff"></path><g id="SvgjsG1293"><text id="SvgjsText1294" font-family="微软雅黑" text-anchor="middle" font-size="14px" width="522px" fill="#323232" font-weight="700" align="middle" lineHeight="125%" anchor="middle" family="微软雅黑" size="14px" weight="700" font-style="" opacity="1" y="12.805557250976278" transform="rotate(0)"><tspan id="SvgjsTspan1295" dy="17" x="271"><tspan id="SvgjsTspan1296" style="text-decoration:;">检查任务队列，先看微任务，没有微任务再看宏任务，有事件回调放入主线程执行</tspan></tspan></text></g></g><g id="SvgjsG1297"><path id="SvgjsPath1298" d="M599.824557963332 444.05085639194044C 572.3333333333334 513.1111043294271 436.33333333333337 463.77777099609375 389.87188456746514 498.17589466737604" stroke="#323232" stroke-width="2" fill="none" marker-end="url(#SvgjsMarker1299)"></path></g><g id="SvgjsG1301"><path id="SvgjsPath1302" d="M430.6537599297611 444.7981444124854C 430.91666666666663 472.40961817086315 386.76822916666663 471.42369481741866 387.71469341952604 496.52663332143334" stroke="#323232" stroke-width="2" fill="none" marker-end="url(#SvgjsMarker1303)"></path></g><g id="SvgjsG1305"><path id="SvgjsPath1306" d="M177.46555586228067 444.93480138412986C 232.33333333333337 494.4444376627604 356.9999999999999 441.77777099609375 384.77277621156634 497.00363078624116" stroke="#323232" stroke-width="2" fill="none" marker-end="url(#SvgjsMarker1307)"></path></g><g id="SvgjsG1309"><path id="SvgjsPath1310" d="M115.60085254096498 524.1179012777046C 29.66666666666663 491.77777099609375 25 117.77777099609375 98.65066889576406 52.0748209319961" stroke="#323232" stroke-width="2" fill="none" marker-end="url(#SvgjsMarker1311)"></path></g><g id="SvgjsG1313" transform="translate(306.33333333333337,24.999989827474224)"><path id="SvgjsPath1314" d="M 0 4Q 0 0 4 0L 347.03645833333326 0Q 351.03645833333326 0 351.03645833333326 4L 351.03645833333326 122.77778116861953Q 351.03645833333326 126.77778116861953 347.03645833333326 126.77778116861953L 4 126.77778116861953Q 0 126.77778116861953 0 122.77778116861953Z" stroke="rgba(33,41,48,1)" stroke-width="2" fill-opacity="1" fill="#ffffff"></path><g id="SvgjsG1315"><text id="SvgjsText1316" font-family="微软雅黑" text-anchor="start" font-size="13px" width="332px" fill="#323232" font-weight="700" align="middle" lineHeight="125%" anchor="start" family="微软雅黑" size="13px" weight="700" font-style="" opacity="1" y="3.763890584309763" transform="rotate(0)"><tspan id="SvgjsTspan1317" dy="16" x="10"><tspan id="SvgjsTspan1318" style="text-decoration:;">事件循环：</tspan><tspan id="SvgjsTspan1319" style="text-decoration:;color: rgb(51, 51, 51);">对于 JS 运行中的任务，JS 有一套处理收集，</tspan></tspan><tspan id="SvgjsTspan1320" dy="16" x="10"><tspan id="SvgjsTspan1321" style="text-decoration:;color: rgb(51, 51, 51);">排队，执行的特殊机制，我们把这套处理机制称为事件循</tspan></tspan><tspan id="SvgjsTspan1322" dy="16" x="10"><tspan id="SvgjsTspan1323" style="text-decoration:;color: rgb(51, 51, 51);">环（Event Loop）。</tspan></tspan><tspan id="SvgjsTspan1324" dy="16" x="10"><tspan id="SvgjsTspan1325" style="text-decoration:;color: rgb(51, 51, 51);">产生原因：JavaScript 的单线程。</tspan></tspan><tspan id="SvgjsTspan1326" dy="16" x="10"><tspan id="SvgjsTspan1327" style="text-decoration:;"> </tspan></tspan><tspan id="SvgjsTspan1328" dy="16" x="10"><tspan id="SvgjsTspan1329" style="text-decoration:;">宏任务：不需要立即连贯执行。</tspan></tspan><tspan id="SvgjsTspan1330" dy="16" x="10"><tspan id="SvgjsTspan1331" style="text-decoration:;">微任务：需要立即连贯执行。</tspan></tspan></text></g></g></svg>